<svg id="Capa_1" enable-background="new 0 0 511.927 511.927" height="512" viewBox="0 0 511.927 511.927" width="512" xmlns="http://www.w3.org/2000/svg"><g id="Layer_2_5_"><g id="Surfaces_6_"><g id="Video_Audio_Surface_3_"><g id="Outline_no_shadow_6_"><path d="m90.628 9.142h330.671c50.052 0 90.628 40.576 90.628 90.628v312.388c0 50.052-40.575 90.628-90.628 90.628h-330.671c-50.053-.001-90.628-40.576-90.628-90.629v-312.388c0-50.052 40.575-90.627 90.628-90.627z" fill="#00005b"/></g></g></g><g id="Outlined_Mnemonics_Logos_5_"><g id="Au" fill="#99f"><path d="m202.013 301.481h-78.136l-15.895 51.805c-.446 1.857-2.15 3.135-4.057 3.044h-39.575c-2.259 0-3.047-1.24-2.366-3.721l67.647-192.294c.674-2.029 1.351-4.34 2.031-6.934.884-4.513 1.335-9.1 1.348-13.699-.161-1.146.637-2.206 1.783-2.368.195-.028.392-.027.587 0h53.783c1.571 0 2.473.567 2.705 1.692l76.775 213.941c.678 2.259.003 3.386-2.027 3.383h-43.971c-1.562.174-3.009-.84-3.379-2.368zm-65.959-35.995h56.492l-28.246-91.593z"/><path d="m429.449 194.626-.821 123.923c0 5.638.057 10.655.17 15.051.112 4.397.338 8.23.679 11.5.339 3.27.62 6.032.844 8.287.219 1.806-.567 2.705-2.37 2.705l-34.834.448c-1.725.182-3.368-.777-4.058-2.368-.484-1.726-.879-3.476-1.183-5.243-.322-1.729-.492-3.484-.509-5.242-6.297 6.346-13.939 11.196-22.363 14.19-7.608 2.072-15.451 3.152-23.336 3.213-8.15.008-16.25-1.277-23.997-3.809-6.785-1.882-12.996-5.419-18.078-10.292-5.397-6.61-9.421-14.23-11.838-22.413-3.034-9.68-4.462-19.792-4.227-29.933v-99.775c-.187-1.307.722-2.519 2.029-2.706.226-.032.455-.032.68.001h39.78c1.308-.186 2.519.723 2.705 2.031.032.224.032.451 0 .674v94.363c-.442 7.745 1.7 15.419 6.088 21.816 5.535 6.337 13.584 9.91 21.997 9.764 5.439-.538 10.744-2.01 15.682-4.352 4.279-1.689 8.272-4.028 11.838-6.934v-114.994c0-1.576 1.015-2.365 3.044-2.368l39.712.095c1.146-.161 2.206.638 2.366 1.784.028.194.028.391 0 .584z"/></g></g></g></svg>