<svg id="Capa_1" enable-background="new 0 0 512.123 512.123" height="512" viewBox="0 0 512.123 512.123" width="512" xmlns="http://www.w3.org/2000/svg"><g><g id="Layer_2_4_"><g id="Surfaces_5_"><g id="Video_Audio_Surface_2_"><g id="Outline_no_shadow_5_"><path d="m90.688 6.402h330.746c50.086 0 90.689 40.603 90.689 90.688v317.943c0 50.086-40.603 90.689-90.689 90.689h-330.746c-50.085-.001-90.688-40.603-90.688-90.689v-317.943c0-50.086 40.603-90.688 90.688-90.688z" fill="#00005b"/></g></g></g><g id="Outlined_Mnemonics_Logos_4_"><g id="Ae" fill="#99f"><path d="m205.735 305.14h-79.361l-16.146 50.254c-.453 1.887-2.184 3.185-4.123 3.092h-40.195c-2.292 0-3.094-1.26-2.405-3.779l68.71-197.067c.687-2.061 1.374-4.076 2.061-6.712.9-4.583 1.36-9.242 1.374-13.913-.165-1.163.643-2.24 1.806-2.405.199-.028.4-.028.599 0h54.625c1.599 0 2.516.573 2.749 1.718l77.985 218.722c.687 2.292 0 3.438-2.061 3.436h-44.662c-1.587.176-3.058-.853-3.435-2.405zm-39.853-131.353h-.344l-26.796 88.979h54.281z"/><path d="m399.842 285.58h-67.679c.829 6.696 3.053 13.145 6.528 18.928 3.842 5.727 9.275 10.205 15.631 12.883 8.614 3.727 17.93 5.553 27.313 5.353 7.444-.143 14.861-.957 22.159-2.433 6.527-.881 12.924-2.549 19.052-4.966 1.143-.912 1.718-.343 1.718 1.718v32.637c.057.889-.121 1.778-.516 2.577-.393.625-.922 1.153-1.546 1.546-6.796 3.01-13.949 5.141-21.284 6.341-9.965 1.872-20.094 2.735-30.232 2.577-16.265 0-29.893-2.519-40.883-7.558-10.389-4.577-19.565-11.518-26.796-20.269-6.755-8.246-11.779-17.769-14.773-27.999-2.965-10.098-4.469-20.568-4.466-31.091-.032-11.491 1.766-22.914 5.325-33.839 3.428-10.658 8.849-20.567 15.975-29.202 15.704-19.028 37.317-26.958 61.495-26.958 20.835 0 42.207 6.9 55.655 23.522 5.628 7.263 9.931 15.462 12.711 24.22 2.707 8.44 4.097 17.246 4.123 26.11 0 5.04-.172 9.621-.516 13.742-.343 4.122-.629 7.1-.858 8.932-.185 1.568-1.514 2.749-3.092 2.749-1.374 0-3.722.172-7.042.515-3.323.343-7.445.572-12.367.687-4.932.116-10.138-.722-15.635-.722zm-67.679-31.297h45.005c5.497 0 9.562-.057 12.196-.172 1.762-.176 3.464-.74 4.983-1.651v-2.062c-.069-2.687-.532-5.349-1.374-7.901-3.81-12.047-15.201-20.063-27.827-19.582-11.814-.714-22.933 5.62-28.343 16.146-2.356 4.792-3.922 9.932-4.64 15.222z"/></g></g></g></g></svg>